#N canvas 43 51 1323 717 10;
#X declare -lib zexy;
#X declare -lib zexy;
#N canvas 44 51 1321 713 inner 0;
#X obj 311 115 adc~ 1;
#X obj 511 3 bng 30 250 50 0 empty empty Start 34 15 0 10 -262144 -1
-1;
#X msg 626 61 \; pd dsp 1;
#X obj 1136 98 bng 15 250 50 0 empty empty 1 17 7 0 10 -262144 -1 -1
;
#X obj 1167 98 bng 15 250 50 0 empty empty 2 17 7 0 10 -262144 -1 -1
;
#X obj 1199 99 bng 15 250 50 0 empty empty 3 17 7 0 10 -262144 -1 -1
;
#X obj 1136 126 bng 15 250 50 0 empty empty 4 17 7 0 10 -262144 -1
-1;
#N canvas 313 140 946 614 keypad------------------------------ 0;
#X obj 100 25 inlet;
#X obj 55 481 outlet;
#X obj 100 59 moses 28;
#X obj 100 482 outlet;
#X obj 151 482 outlet;
#X obj 202 482 outlet;
#X obj 241 142 moses 168;
#X obj 292 166 moses 256;
#X obj 253 484 outlet;
#X obj 304 485 outlet;
#X obj 355 486 outlet;
#X obj 343 190 moses 364;
#X obj 394 216 moses 484;
#X obj 445 240 moses 624;
#X obj 406 487 outlet;
#X obj 457 487 outlet;
#X obj 508 489 outlet;
#X obj 559 490 outlet;
#X obj 610 491 outlet;
#X obj 496 264 moses 740;
#X obj 547 288 moses 820;
#X obj 667 488 outlet;
#X floatatom 27 129 5 0 0 0 - - -;
#X obj 145 92 moses 60;
#X obj 190 116 moses 100;
#X obj 598 312 moses 880;
#X obj 649 338 moses 940;
#X msg 133 407 24;
#X msg 179 407 25;
#X msg 220 407 26;
#X msg 273 408 27;
#X msg 325 408 28;
#X msg 371 411 36;
#X msg 427 413 48;
#X msg 484 410 60;
#X msg 531 402 72;
#X msg 631 401 84;
#X connect 0 0 2 0;
#X connect 0 0 22 0;
#X connect 2 1 23 0;
#X connect 6 0 4 0;
#X connect 6 0 29 0;
#X connect 6 1 7 0;
#X connect 7 0 5 0;
#X connect 7 0 30 0;
#X connect 7 1 11 0;
#X connect 11 0 8 0;
#X connect 11 0 31 0;
#X connect 11 1 12 0;
#X connect 12 0 9 0;
#X connect 12 0 32 0;
#X connect 12 1 13 0;
#X connect 13 0 10 0;
#X connect 13 0 33 0;
#X connect 13 1 19 0;
#X connect 19 0 14 0;
#X connect 19 0 34 0;
#X connect 19 1 20 0;
#X connect 20 0 15 0;
#X connect 20 0 35 0;
#X connect 20 1 25 0;
#X connect 23 0 1 0;
#X connect 23 0 27 0;
#X connect 23 1 24 0;
#X connect 24 0 3 0;
#X connect 24 0 28 0;
#X connect 24 1 6 0;
#X connect 25 0 16 0;
#X connect 25 1 26 0;
#X connect 26 0 17 0;
#X connect 26 0 36 0;
#X connect 26 1 18 0;
#X connect 27 0 21 0;
#X connect 28 0 21 0;
#X connect 29 0 21 0;
#X connect 30 0 21 0;
#X connect 31 0 21 0;
#X connect 32 0 21 0;
#X connect 33 0 21 0;
#X connect 34 0 21 0;
#X connect 35 0 21 0;
#X connect 36 0 21 0;
#X restore 967 14 pd keypad------------------------------;
#X obj 1168 126 bng 15 250 50 0 empty empty 5 17 7 0 10 -262144 -1
-1;
#X obj 1199 126 bng 15 250 50 0 empty empty 6 17 7 0 10 -262144 -1
-1;
#X obj 1136 153 bng 15 250 50 0 empty empty 7 17 7 0 10 -262144 -1
-1;
#X obj 1168 153 bng 15 250 50 0 empty empty 8 17 7 0 10 -262144 -1
-1;
#X obj 1199 153 bng 15 250 50 0 empty empty 9 17 7 0 10 -262144 -1
-1;
#X obj 1136 181 bng 15 250 50 0 empty empty A 17 7 0 10 -262144 -1
-1;
#X obj 1167 181 bng 15 250 50 0 empty empty 0 17 7 0 10 -262144 -1
-1;
#X obj 1198 181 bng 15 250 50 0 empty empty F 17 7 0 10 -262144 -1
-1;
#N canvas 44 51 450 300 scale-signal 0;
#X obj 176 33 inlet;
#X obj 176 167 outlet;
#X obj 176 125 / 1024;
#X obj 209 97 spigot;
#X obj 258 52 tgl 32 0 empty empty empty 17 7 0 10 -262144 -1 -1 0
1;
#X obj 176 65 t f f;
#X connect 0 0 5 0;
#X connect 2 0 1 0;
#X connect 3 0 2 1;
#X connect 4 0 3 1;
#X connect 5 0 2 0;
#X connect 5 1 3 0;
#X coords 0 -1 1 1 85 60 1 250 30;
#X restore 841 143 pd scale-signal;
#N canvas 124 79 1002 571 out 0;
#X obj 17 7 inlet~;
#X obj 52 217 lop~;
#X obj 17 184 *~ 1;
#X obj 236 -23 inlet;
#X obj 673 1 inlet;
#X obj 51 183 *~ 0;
#X obj 286 15 tgl 15 0 empty empty LP 17 7 0 10 -262144 -1 -1 0 1;
#X obj 19 292 *~ 1;
#X obj 126 289 *~ 0;
#X obj 324 88 expr if($f1==1 \, 0 \, 1);
#X obj 127 321 hip~;
#X obj 18 249 +~;
#X obj 19 356 +~;
#X obj 19 517 dac~ 1 2;
#X obj 330 -23 inlet;
#X obj 324 15 tgl 15 0 empty empty HP 17 7 0 10 -262144 -1 -1 0 1;
#X obj 740 42 expr (exp($f1) -1) / (exp(1) - 1);
#X obj 673 101 * 20000;
#X obj 740 103 * 5000;
#X obj 740 154 line;
#X msg 740 127 \$1 100;
#X obj 673 76 expr (exp(1- $f1) -1) / (exp(1) - 1);
#X obj 673 154 line;
#X msg 673 127 \$1 100;
#X obj 359 15 tgl 15 0 empty empty BP 17 7 0 10 -262144 -1 -1 0 1;
#X obj 191 56 expr if($f1==1 \, 0 \, 1);
#X obj 359 50 expr if($f1==1 \, 0 \, 1);
#X obj 19 393 *~ 1;
#X obj 116 417 *~ 0;
#X obj 18 441 +~;
#X obj 117 387 bp~ 0 4;
#X obj 754 228 + 20;
#X obj 75 8 inlet~;
#X obj 212 202 lop~;
#X obj 177 169 *~ 1;
#X obj 211 168 *~ 0;
#X obj 179 277 *~ 1;
#X obj 286 274 *~ 0;
#X obj 287 306 hip~;
#X obj 178 234 +~;
#X obj 179 341 +~;
#X obj 179 378 *~ 1;
#X obj 276 402 *~ 0;
#X obj 178 426 +~;
#X obj 277 372 bp~ 0 4;
#X obj 402 -24 inlet;
#X obj 677 299 + 100;
#X obj 18 472 fx/normalize~;
#X obj 178 457 fx/normalize~;
#X connect 0 0 5 0;
#X connect 0 0 2 0;
#X connect 1 0 11 1;
#X connect 2 0 11 0;
#X connect 3 0 6 0;
#X connect 4 0 16 0;
#X connect 4 0 21 0;
#X connect 5 0 1 0;
#X connect 6 0 25 0;
#X connect 6 0 5 1;
#X connect 6 0 35 1;
#X connect 7 0 12 0;
#X connect 8 0 10 0;
#X connect 9 0 7 1;
#X connect 9 0 36 1;
#X connect 10 0 12 1;
#X connect 11 0 7 0;
#X connect 11 0 8 0;
#X connect 12 0 27 0;
#X connect 12 0 30 0;
#X connect 14 0 15 0;
#X connect 15 0 9 0;
#X connect 15 0 8 1;
#X connect 15 0 37 1;
#X connect 16 0 18 0;
#X connect 17 0 23 0;
#X connect 18 0 20 0;
#X connect 19 0 10 1;
#X connect 19 0 31 0;
#X connect 19 0 38 1;
#X connect 20 0 19 0;
#X connect 21 0 17 0;
#X connect 22 0 1 1;
#X connect 22 0 33 1;
#X connect 23 0 22 0;
#X connect 24 0 26 0;
#X connect 24 0 42 1;
#X connect 24 0 28 1;
#X connect 25 0 2 1;
#X connect 25 0 34 1;
#X connect 26 0 27 1;
#X connect 26 0 41 1;
#X connect 27 0 29 0;
#X connect 28 0 29 1;
#X connect 29 0 47 0;
#X connect 30 0 28 0;
#X connect 31 0 30 1;
#X connect 31 0 46 0;
#X connect 32 0 34 0;
#X connect 32 0 35 0;
#X connect 33 0 39 1;
#X connect 34 0 39 0;
#X connect 35 0 33 0;
#X connect 36 0 40 0;
#X connect 37 0 38 0;
#X connect 38 0 40 1;
#X connect 39 0 36 0;
#X connect 39 0 37 0;
#X connect 40 0 41 0;
#X connect 40 0 44 0;
#X connect 41 0 43 0;
#X connect 42 0 43 1;
#X connect 43 0 48 0;
#X connect 44 0 42 0;
#X connect 45 0 24 0;
#X connect 46 0 44 1;
#X connect 47 0 13 0;
#X connect 48 0 13 1;
#X coords 0 -1 1 1 110 32 1 280 0;
#X restore 545 658 pd out;
#X obj 1154 539 bng 15 250 50 0 empty empty empty 17 7 0 10 -262144
-1 -1;
#X obj 511 37 t b b b b;
#N canvas 367 370 769 394 arduino-routing 0;
#X obj 230 4 inlet;
#X obj 9 213 outlet;
#X obj 63 213 outlet;
#X obj 108 215 outlet;
#X msg 230 25 open 4;
#X obj 230 49 arduino-residuum;
#X obj 230 74 route d a;
#X obj 408 152 route 1 2;
#X obj 45 133 route 2 4 3 5 6 7;
#X obj 9 177 sel 1;
#X obj 63 176 sel 1;
#X obj 156 217 outlet;
#X obj 210 217 outlet;
#X obj 255 219 outlet;
#X obj 255 182 sel 1;
#X obj 410 227 outlet;
#X obj 459 226 outlet;
#X obj 107 177 sel 1;
#X obj 148 181 sel 1;
#X obj 198 182 sel 1;
#X connect 0 0 4 0;
#X connect 4 0 5 0;
#X connect 5 0 6 0;
#X connect 6 0 8 0;
#X connect 6 1 7 0;
#X connect 7 0 15 0;
#X connect 7 1 16 0;
#X connect 8 0 9 0;
#X connect 8 1 10 0;
#X connect 8 2 17 0;
#X connect 8 3 18 0;
#X connect 8 4 19 0;
#X connect 8 5 14 0;
#X connect 9 0 1 0;
#X connect 10 0 2 0;
#X connect 14 0 13 0;
#X connect 17 0 3 0;
#X connect 18 0 11 0;
#X connect 19 0 12 0;
#X restore 487 67 pd arduino-routing;
#X obj 1028 523 noteout 1;
#X obj 1029 173 makenote 90 50;
#X obj 3 221 loopers/sample-looper-box~;
#X obj 208 221 loopers/sample-looper-box~;
#X obj 413 221 loopers/sample-looper-box~;
#X obj 618 221 loopers/sample-looper-box~;
#X obj 823 221 loopers/sample-looper-box~;
#X obj 1028 221 loopers/note-vel-looper-box;
#X obj 823 494 fx/waveshaper~;
#X obj 823 541 fx/pan~;
#X obj 618 541 fx/pan~;
#X obj 618 494 fx/waveshaper~;
#X obj 413 494 fx/waveshaper~;
#X obj 413 541 fx/pan~;
#X obj 208 541 fx/pan~;
#X obj 208 494 fx/waveshaper~;
#X obj 4 494 fx/waveshaper~;
#X obj 4 541 fx/pan~;
#X obj 5 2 glue/switch-matrix-6x6;
#X obj 424 161 glue/shift-router;
#X obj 617 162 glue/shift-router;
#X connect 0 0 23 2;
#X connect 0 0 24 2;
#X connect 0 0 25 2;
#X connect 0 0 26 2;
#X connect 0 0 27 2;
#X connect 1 0 19 0;
#X connect 7 0 3 0;
#X connect 7 1 4 0;
#X connect 7 2 5 0;
#X connect 7 3 6 0;
#X connect 7 4 8 0;
#X connect 7 5 9 0;
#X connect 7 6 10 0;
#X connect 7 7 11 0;
#X connect 7 8 12 0;
#X connect 7 9 13 0;
#X connect 7 9 23 3;
#X connect 7 9 24 3;
#X connect 7 9 25 3;
#X connect 7 9 26 3;
#X connect 7 9 27 3;
#X connect 7 9 28 5;
#X connect 7 10 14 0;
#X connect 7 11 15 0;
#X connect 7 11 28 4;
#X connect 7 12 22 0;
#X connect 16 0 17 5;
#X connect 19 0 20 0;
#X connect 19 3 2 0;
#X connect 20 0 40 0;
#X connect 20 0 41 0;
#X connect 20 1 40 1;
#X connect 20 2 41 1;
#X connect 20 3 17 3;
#X connect 20 4 17 4;
#X connect 20 5 17 2;
#X connect 20 6 7 0;
#X connect 20 7 16 0;
#X connect 22 0 28 2;
#X connect 22 1 28 3;
#X connect 23 0 37 0;
#X connect 23 1 39 0;
#X connect 24 0 36 0;
#X connect 24 1 39 1;
#X connect 25 0 33 0;
#X connect 25 1 39 2;
#X connect 26 0 32 0;
#X connect 26 1 39 3;
#X connect 27 0 29 0;
#X connect 27 1 39 4;
#X connect 28 0 21 0;
#X connect 28 0 18 0;
#X connect 28 1 21 1;
#X connect 28 2 39 5;
#X connect 29 0 30 0;
#X connect 30 0 17 0;
#X connect 30 1 17 1;
#X connect 31 0 17 0;
#X connect 31 1 17 1;
#X connect 32 0 31 0;
#X connect 33 0 34 0;
#X connect 34 0 17 0;
#X connect 34 1 17 1;
#X connect 35 0 17 0;
#X connect 35 1 17 1;
#X connect 36 0 35 0;
#X connect 37 0 38 0;
#X connect 38 0 17 0;
#X connect 38 1 17 1;
#X connect 39 0 23 3;
#X connect 39 1 24 3;
#X connect 39 2 25 3;
#X connect 39 3 26 3;
#X connect 39 4 27 3;
#X connect 39 5 28 5;
#X connect 40 0 23 0;
#X connect 40 1 24 0;
#X connect 40 2 25 0;
#X connect 40 3 26 0;
#X connect 40 4 27 0;
#X connect 40 5 28 0;
#X connect 41 0 23 1;
#X connect 41 1 24 1;
#X connect 41 2 25 1;
#X connect 41 3 26 1;
#X connect 41 4 27 1;
#X connect 41 5 28 1;
#X coords 0 -1 1 1 1270 700 2 0 0;
#X restore -353 -156 pd inner;
