#N canvas 43 51 1323 717 10;
#N canvas 44 51 1321 713 inner 0;
#X obj 5 2 switch-matrix-6x6;
#X obj 311 115 adc~ 1;
#X obj 614 161 shift-router;
#X obj 511 3 bng 30 250 50 0 empty empty Start 34 15 0 10 -262144 -1
-1;
#X msg 626 61 \; pd dsp 1;
#X obj 1136 98 bng 15 250 50 0 empty empty 1 17 7 0 10 -262144 -1 -1
;
#X obj 1167 98 bng 15 250 50 0 empty empty 2 17 7 0 10 -262144 -1 -1
;
#X obj 1199 99 bng 15 250 50 0 empty empty 3 17 7 0 10 -262144 -1 -1
;
#X obj 1136 126 bng 15 250 50 0 empty empty 4 17 7 0 10 -262144 -1
-1;
#N canvas 321 148 946 614 keypad------------------------------ 0;
#X obj 100 25 inlet;
#X obj 55 481 outlet;
#X obj 100 59 moses 28;
#X obj 100 482 outlet;
#X obj 151 482 outlet;
#X obj 202 482 outlet;
#X obj 241 142 moses 168;
#X obj 292 166 moses 256;
#X obj 253 484 outlet;
#X obj 304 485 outlet;
#X obj 355 486 outlet;
#X obj 343 190 moses 364;
#X obj 394 216 moses 484;
#X obj 445 240 moses 624;
#X obj 406 487 outlet;
#X obj 457 487 outlet;
#X obj 508 489 outlet;
#X obj 559 490 outlet;
#X obj 610 491 outlet;
#X obj 496 264 moses 740;
#X obj 547 288 moses 820;
#X msg 133 407 36;
#X msg 179 407 37;
#X msg 220 407 38;
#X msg 273 408 39;
#X msg 325 408 40;
#X msg 371 411 41;
#X msg 427 413 42;
#X msg 484 410 43;
#X msg 530 409 44;
#X obj 667 488 outlet;
#X floatatom 27 129 5 0 0 0 - - -;
#X obj 145 92 moses 60;
#X obj 190 116 moses 100;
#X obj 598 312 moses 880;
#X obj 649 338 moses 940;
#X connect 0 0 2 0;
#X connect 0 0 31 0;
#X connect 2 1 32 0;
#X connect 6 0 4 0;
#X connect 6 0 23 0;
#X connect 6 1 7 0;
#X connect 7 0 5 0;
#X connect 7 0 24 0;
#X connect 7 1 11 0;
#X connect 11 0 8 0;
#X connect 11 0 25 0;
#X connect 11 1 12 0;
#X connect 12 0 9 0;
#X connect 12 0 26 0;
#X connect 12 1 13 0;
#X connect 13 0 10 0;
#X connect 13 1 19 0;
#X connect 19 0 14 0;
#X connect 19 1 20 0;
#X connect 20 0 15 0;
#X connect 20 1 34 0;
#X connect 21 0 30 0;
#X connect 22 0 30 0;
#X connect 23 0 30 0;
#X connect 24 0 30 0;
#X connect 25 0 30 0;
#X connect 26 0 30 0;
#X connect 27 0 30 0;
#X connect 28 0 30 0;
#X connect 29 0 30 0;
#X connect 32 0 1 0;
#X connect 32 0 21 0;
#X connect 32 1 33 0;
#X connect 33 0 3 0;
#X connect 33 0 22 0;
#X connect 33 1 6 0;
#X connect 34 0 16 0;
#X connect 34 1 35 0;
#X connect 35 0 17 0;
#X connect 35 1 18 0;
#X restore 967 14 pd keypad------------------------------;
#X obj 1168 126 bng 15 250 50 0 empty empty 5 17 7 0 10 -262144 -1
-1;
#X obj 1199 126 bng 15 250 50 0 empty empty 6 17 7 0 10 -262144 -1
-1;
#X obj 1136 153 bng 15 250 50 0 empty empty 7 17 7 0 10 -262144 -1
-1;
#X obj 1168 153 bng 15 250 50 0 empty empty 8 17 7 0 10 -262144 -1
-1;
#X obj 1199 153 bng 15 250 50 0 empty empty 9 17 7 0 10 -262144 -1
-1;
#X obj 1136 181 bng 15 250 50 0 empty empty A 17 7 0 10 -262144 -1
-1;
#X obj 1167 181 bng 15 250 50 0 empty empty 0 17 7 0 10 -262144 -1
-1;
#X obj 1198 181 bng 15 250 50 0 empty empty F 17 7 0 10 -262144 -1
-1;
#N canvas 44 51 450 300 scale-signal 0;
#X obj 176 33 inlet;
#X obj 176 167 outlet;
#X obj 176 125 / 1024;
#X obj 209 97 spigot;
#X obj 258 52 tgl 32 0 empty empty empty 17 7 0 10 -262144 -1 -1 0
1;
#X obj 176 65 t f f;
#X connect 0 0 5 0;
#X connect 2 0 1 0;
#X connect 3 0 2 1;
#X connect 4 0 3 1;
#X connect 5 0 2 0;
#X connect 5 1 3 0;
#X coords 0 -1 1 1 85 60 1 250 30;
#X restore 841 143 pd scale-signal;
#X obj 208 221 sample-looper-box~;
#X obj 424 161 shift-router;
#N canvas 130 85 1002 571 out 0;
#X obj 17 7 inlet~;
#X obj 18 472 normalize~;
#X obj 52 217 lop~;
#X obj 17 184 *~ 1;
#X obj 236 -23 inlet;
#X obj 673 1 inlet;
#X obj 51 183 *~ 0;
#X obj 286 15 tgl 15 0 empty empty LP 17 7 0 10 -262144 -1 -1 0 1;
#X obj 19 292 *~ 1;
#X obj 126 289 *~ 0;
#X obj 324 88 expr if($f1==1 \, 0 \, 1);
#X obj 127 321 hip~;
#X obj 18 249 +~;
#X obj 19 356 +~;
#X obj 19 517 dac~ 1 2;
#X obj 330 -23 inlet;
#X obj 324 15 tgl 15 0 empty empty HP 17 7 0 10 -262144 -1 -1 0 1;
#X obj 740 42 expr (exp($f1) -1) / (exp(1) - 1);
#X obj 673 101 * 20000;
#X obj 740 103 * 5000;
#X obj 740 154 line;
#X msg 740 127 \$1 100;
#X obj 673 76 expr (exp(1- $f1) -1) / (exp(1) - 1);
#X obj 673 154 line;
#X msg 673 127 \$1 100;
#X obj 359 15 tgl 15 0 empty empty BP 17 7 0 10 -262144 -1 -1 0 1;
#X obj 191 56 expr if($f1==1 \, 0 \, 1);
#X obj 359 50 expr if($f1==1 \, 0 \, 1);
#X obj 19 393 *~ 1;
#X obj 116 417 *~ 0;
#X obj 18 441 +~;
#X obj 117 387 bp~ 0 4;
#X obj 754 228 + 20;
#X obj 75 8 inlet~;
#X obj 178 457 normalize~;
#X obj 212 202 lop~;
#X obj 177 169 *~ 1;
#X obj 211 168 *~ 0;
#X obj 179 277 *~ 1;
#X obj 286 274 *~ 0;
#X obj 287 306 hip~;
#X obj 178 234 +~;
#X obj 179 341 +~;
#X obj 179 378 *~ 1;
#X obj 276 402 *~ 0;
#X obj 178 426 +~;
#X obj 277 372 bp~ 0 4;
#X obj 402 -24 inlet;
#X connect 0 0 6 0;
#X connect 0 0 3 0;
#X connect 1 0 14 0;
#X connect 2 0 12 1;
#X connect 3 0 12 0;
#X connect 4 0 7 0;
#X connect 5 0 17 0;
#X connect 5 0 22 0;
#X connect 6 0 2 0;
#X connect 7 0 26 0;
#X connect 7 0 6 1;
#X connect 7 0 37 1;
#X connect 8 0 13 0;
#X connect 9 0 11 0;
#X connect 10 0 8 1;
#X connect 10 0 38 1;
#X connect 11 0 13 1;
#X connect 12 0 8 0;
#X connect 12 0 9 0;
#X connect 13 0 28 0;
#X connect 13 0 31 0;
#X connect 15 0 16 0;
#X connect 16 0 10 0;
#X connect 16 0 9 1;
#X connect 16 0 39 1;
#X connect 17 0 19 0;
#X connect 18 0 24 0;
#X connect 19 0 21 0;
#X connect 20 0 11 1;
#X connect 20 0 32 0;
#X connect 20 0 40 1;
#X connect 21 0 20 0;
#X connect 22 0 18 0;
#X connect 23 0 2 1;
#X connect 23 0 35 1;
#X connect 24 0 23 0;
#X connect 25 0 27 0;
#X connect 25 0 44 1;
#X connect 25 0 29 1;
#X connect 26 0 3 1;
#X connect 26 0 36 1;
#X connect 27 0 28 1;
#X connect 27 0 43 1;
#X connect 28 0 30 0;
#X connect 29 0 30 1;
#X connect 30 0 1 0;
#X connect 31 0 29 0;
#X connect 32 0 31 1;
#X connect 32 0 46 1;
#X connect 33 0 36 0;
#X connect 33 0 37 0;
#X connect 34 0 14 1;
#X connect 35 0 41 1;
#X connect 36 0 41 0;
#X connect 37 0 35 0;
#X connect 38 0 42 0;
#X connect 39 0 40 0;
#X connect 40 0 42 1;
#X connect 41 0 38 0;
#X connect 41 0 39 0;
#X connect 42 0 43 0;
#X connect 42 0 46 0;
#X connect 43 0 45 0;
#X connect 44 0 45 1;
#X connect 45 0 34 0;
#X connect 46 0 44 0;
#X connect 47 0 25 0;
#X coords 0 -1 1 1 110 32 1 280 0;
#X restore 545 658 pd out;
#X obj 3 221 sample-looper-box~;
#X obj 413 221 sample-looper-box~;
#X obj 618 221 sample-looper-box~;
#X obj 823 221 sample-looper-box~;
#X obj 1029 571 noteout 7;
#X obj 1029 172 makenote 64 50;
#X obj 1028 221 note-vel-looper-box;
#X obj 1095 571 bng 15 250 50 0 empty empty empty 17 7 0 10 -262144
-1 -1;
#X obj 1095 542 spigot;
#X obj 511 37 t b b b b;
#X obj 4 570 abstractions/pan~;
#N canvas 367 370 769 394 arduino-routing 0;
#X obj 230 4 inlet;
#X obj 9 213 outlet;
#X obj 63 213 outlet;
#X obj 108 215 outlet;
#X msg 230 25 open 4;
#X obj 230 49 arduino-residuum;
#X obj 230 74 route d a;
#X obj 408 152 route 1 2;
#X obj 45 133 route 2 4 3 5 6 7;
#X obj 9 177 sel 1;
#X obj 63 176 sel 1;
#X obj 156 217 outlet;
#X obj 210 217 outlet;
#X obj 255 219 outlet;
#X obj 255 182 sel 1;
#X obj 410 227 outlet;
#X obj 459 226 outlet;
#X obj 107 177 sel 1;
#X obj 148 181 sel 1;
#X obj 198 182 sel 1;
#X connect 0 0 4 0;
#X connect 4 0 5 0;
#X connect 5 0 6 0;
#X connect 6 0 8 0;
#X connect 6 1 7 0;
#X connect 7 0 15 0;
#X connect 7 1 16 0;
#X connect 8 0 9 0;
#X connect 8 1 10 0;
#X connect 8 2 17 0;
#X connect 8 3 18 0;
#X connect 8 4 19 0;
#X connect 8 5 14 0;
#X connect 9 0 1 0;
#X connect 10 0 2 0;
#X connect 14 0 13 0;
#X connect 17 0 3 0;
#X connect 18 0 11 0;
#X connect 19 0 12 0;
#X restore 487 67 pd arduino-routing;
#X obj 208 570 abstractions/pan~;
#X obj 413 570 abstractions/pan~;
#X obj 618 570 abstractions/pan~;
#X obj 823 570 abstractions/pan~;
#X obj 4 523 waveshaper~;
#X obj 208 523 waveshaper~;
#X obj 413 523 waveshaper~;
#X obj 618 523 waveshaper~;
#X obj 823 523 waveshaper~;
#X connect 0 0 22 3;
#X connect 0 1 19 3;
#X connect 0 2 23 3;
#X connect 0 3 24 3;
#X connect 0 4 25 3;
#X connect 0 5 28 5;
#X connect 1 0 19 2;
#X connect 1 0 22 2;
#X connect 1 0 23 2;
#X connect 1 0 24 2;
#X connect 1 0 25 2;
#X connect 2 0 22 1;
#X connect 2 1 19 1;
#X connect 2 2 23 1;
#X connect 2 3 24 1;
#X connect 2 4 25 1;
#X connect 2 5 28 1;
#X connect 3 0 31 0;
#X connect 9 0 5 0;
#X connect 9 1 6 0;
#X connect 9 2 7 0;
#X connect 9 3 8 0;
#X connect 9 4 10 0;
#X connect 9 5 11 0;
#X connect 9 6 12 0;
#X connect 9 7 13 0;
#X connect 9 8 14 0;
#X connect 9 9 15 0;
#X connect 9 9 22 3;
#X connect 9 9 19 3;
#X connect 9 9 23 3;
#X connect 9 9 24 3;
#X connect 9 9 25 3;
#X connect 9 9 28 5;
#X connect 9 10 16 0;
#X connect 9 11 17 0;
#X connect 9 11 28 4;
#X connect 9 12 27 0;
#X connect 18 0 21 5;
#X connect 19 0 39 0;
#X connect 19 1 0 1;
#X connect 20 0 22 0;
#X connect 20 1 19 0;
#X connect 20 2 23 0;
#X connect 20 3 24 0;
#X connect 20 4 25 0;
#X connect 20 5 28 0;
#X connect 22 0 38 0;
#X connect 22 1 0 0;
#X connect 23 0 40 0;
#X connect 23 1 0 2;
#X connect 24 0 41 0;
#X connect 24 1 0 3;
#X connect 25 0 42 0;
#X connect 25 1 0 4;
#X connect 27 0 28 2;
#X connect 27 1 28 3;
#X connect 28 0 26 0;
#X connect 28 0 30 0;
#X connect 28 1 26 1;
#X connect 28 1 30 1;
#X connect 28 2 0 5;
#X connect 30 0 29 0;
#X connect 31 0 33 0;
#X connect 31 3 4 0;
#X connect 32 0 21 0;
#X connect 32 1 21 1;
#X connect 33 0 20 0;
#X connect 33 0 2 0;
#X connect 33 1 20 1;
#X connect 33 2 2 1;
#X connect 33 3 21 3;
#X connect 33 4 21 4;
#X connect 33 5 21 2;
#X connect 33 6 9 0;
#X connect 33 7 18 0;
#X connect 34 0 21 0;
#X connect 34 1 21 1;
#X connect 35 0 21 0;
#X connect 35 1 21 1;
#X connect 36 0 21 0;
#X connect 36 1 21 1;
#X connect 37 0 21 0;
#X connect 37 1 21 1;
#X connect 38 0 32 0;
#X connect 39 0 34 0;
#X connect 40 0 35 0;
#X connect 41 0 36 0;
#X connect 42 0 37 0;
#X coords 0 -1 1 1 1270 700 2 0 0;
#X restore -24 -46 pd inner;
